<svg width="64" height="64" viewBox="0 0 64 64" fill="none" xmlns="http://www.w3.org/2000/svg">
<rect x="0.119446" y="0.0944824" width="63.2788" height="63.2788" rx="31.6394" fill="#19B092"/>
<path d="M41.6215 29.8306H39.5451V27.7543C39.5451 27.4688 39.3115 27.2352 39.026 27.2352H37.9879C37.7024 27.2352 37.4688 27.4688 37.4688 27.7543V29.8306H35.3925C35.107 29.8306 34.8734 30.0642 34.8734 30.3497V31.3879C34.8734 31.6734 35.107 31.9069 35.3925 31.9069H37.4688V33.9833C37.4688 34.2688 37.7024 34.5024 37.9879 34.5024H39.026C39.3115 34.5024 39.5451 34.2688 39.5451 33.9833V31.9069H41.6215C41.9069 31.9069 42.1405 31.6734 42.1405 31.3879V30.3497C42.1405 30.0642 41.9069 29.8306 41.6215 29.8306ZM28.6444 31.3879C30.9381 31.3879 32.797 29.5289 32.797 27.2352C32.797 24.9415 30.9381 23.0825 28.6444 23.0825C26.3507 23.0825 24.4917 24.9415 24.4917 27.2352C24.4917 29.5289 26.3507 31.3879 28.6444 31.3879ZM31.5512 32.426H31.0094C30.2892 32.7569 29.4879 32.9451 28.6444 32.9451C27.8009 32.9451 27.0028 32.7569 26.2793 32.426H25.7375C23.3302 32.426 21.3772 34.3791 21.3772 36.7863V38.1359C21.3772 38.9957 22.0747 39.6932 22.9344 39.6932H34.3543C35.214 39.6932 35.9115 38.9957 35.9115 38.1359V36.7863C35.9115 34.3791 33.9585 32.426 31.5512 32.426Z" fill="white"/>
</svg>
