<svg width="64" height="64" viewBox="0 0 64 64" fill="none" xmlns="http://www.w3.org/2000/svg">
<rect x="0.358398" y="0.0944824" width="63.2788" height="63.2788" rx="31.6394" fill="#F56578"/>
<path d="M41.8603 29.8306H39.784V27.7543C39.784 27.4688 39.5504 27.2352 39.2649 27.2352H38.2268C37.9413 27.2352 37.7077 27.4688 37.7077 27.7543V29.8306H35.6313C35.3458 29.8306 35.1123 30.0642 35.1123 30.3497V31.3879C35.1123 31.6734 35.3458 31.9069 35.6313 31.9069H37.7077V33.9833C37.7077 34.2688 37.9413 34.5024 38.2268 34.5024H39.2649C39.5504 34.5024 39.784 34.2688 39.784 33.9833V31.9069H41.8603C42.1458 31.9069 42.3794 31.6734 42.3794 31.3879V30.3497C42.3794 30.0642 42.1458 29.8306 41.8603 29.8306ZM28.8833 31.3879C31.177 31.3879 33.0359 29.5289 33.0359 27.2352C33.0359 24.9415 31.177 23.0825 28.8833 23.0825C26.5896 23.0825 24.7306 24.9415 24.7306 27.2352C24.7306 29.5289 26.5896 31.3879 28.8833 31.3879ZM31.7901 32.426H31.2483C30.5281 32.7569 29.7268 32.9451 28.8833 32.9451C28.0397 32.9451 27.2417 32.7569 26.5182 32.426H25.9764C23.5691 32.426 21.6161 34.3791 21.6161 36.7863V38.1359C21.6161 38.9957 22.3136 39.6932 23.1733 39.6932H34.5932C35.4529 39.6932 36.1504 38.9957 36.1504 38.1359V36.7863C36.1504 34.3791 34.1974 32.426 31.7901 32.426Z" fill="white"/>
</svg>
