<svg width="64" height="64" viewBox="0 0 64 64" fill="none" xmlns="http://www.w3.org/2000/svg">
<rect x="0.59729" y="0.0944824" width="63.2788" height="63.2788" rx="31.6394" fill="#34B6CC"/>
<path d="M42.0992 29.8306H40.0229V27.7543C40.0229 27.4688 39.7893 27.2352 39.5038 27.2352H38.4657C38.1802 27.2352 37.9466 27.4688 37.9466 27.7543V29.8306H35.8702C35.5847 29.8306 35.3512 30.0642 35.3512 30.3497V31.3879C35.3512 31.6734 35.5847 31.9069 35.8702 31.9069H37.9466V33.9833C37.9466 34.2688 38.1802 34.5024 38.4657 34.5024H39.5038C39.7893 34.5024 40.0229 34.2688 40.0229 33.9833V31.9069H42.0992C42.3847 31.9069 42.6183 31.6734 42.6183 31.3879V30.3497C42.6183 30.0642 42.3847 29.8306 42.0992 29.8306ZM29.1221 31.3879C31.4158 31.3879 33.2748 29.5289 33.2748 27.2352C33.2748 24.9415 31.4158 23.0825 29.1221 23.0825C26.8284 23.0825 24.9695 24.9415 24.9695 27.2352C24.9695 29.5289 26.8284 31.3879 29.1221 31.3879ZM32.029 32.426H31.4872C30.767 32.7569 29.9657 32.9451 29.1221 32.9451C28.2786 32.9451 27.4805 32.7569 26.7571 32.426H26.2153C23.808 32.426 21.855 34.3791 21.855 36.7863V38.1359C21.855 38.9957 22.5525 39.6932 23.4122 39.6932H34.8321C35.6918 39.6932 36.3893 38.9957 36.3893 38.1359V36.7863C36.3893 34.3791 34.4363 32.426 32.029 32.426Z" fill="white"/>
</svg>
