<svg width="64" height="64" viewBox="0 0 64 64" fill="none" xmlns="http://www.w3.org/2000/svg">
<rect x="0.358398" y="0.696289" width="63.2788" height="63.2788" rx="31.6394" fill="#F56578"/>
<path d="M41.7607 32.946H32.7039L38.7356 38.9777C38.9661 39.2082 39.3455 39.2269 39.5825 39.0036C41.0596 37.612 42.0756 35.7361 42.3737 33.6273C42.4249 33.2663 42.1252 32.946 41.7607 32.946V32.946ZM41.1565 30.4728C40.842 25.9132 37.1985 22.2697 32.639 21.9552C32.2909 21.9312 31.9978 22.2247 31.9978 22.5736V31.114H40.5386C40.8875 31.114 41.1806 30.8208 41.1565 30.4728V30.4728ZM30.1658 32.946V23.8892C30.1658 23.5247 29.8455 23.2251 29.4848 23.2762C24.9364 23.919 21.4597 27.8926 21.6215 32.6548C21.7879 37.5456 25.999 41.5563 30.8921 41.4949C32.8157 41.4708 34.5932 40.851 36.0547 39.8143C36.3562 39.6006 36.376 39.1567 36.1146 38.8952L30.1658 32.946Z" fill="white"/>
</svg>
