<svg width="64" height="64" viewBox="0 0 64 64" fill="none" xmlns="http://www.w3.org/2000/svg">
<rect x="0.119446" y="0.696289" width="63.2788" height="63.2788" rx="31.6394" fill="#19B092"/>
<path d="M31.7588 25.5559C28.0135 25.5559 24.9789 28.5904 24.9789 32.3358C24.9789 36.0811 28.0135 39.1156 31.7588 39.1156C35.5041 39.1156 38.5387 36.0811 38.5387 32.3358C38.5387 28.5904 35.5041 25.5559 31.7588 25.5559ZM34.2873 34.1128L33.7406 34.7962C33.7047 34.8411 33.6603 34.8784 33.61 34.9061C33.5597 34.9339 33.5044 34.9514 33.4473 34.9577C33.3902 34.9641 33.3324 34.9591 33.2772 34.9431C33.2221 34.9271 33.1706 34.9004 33.1257 34.8646L31.2941 33.5053C31.1661 33.4028 31.0628 33.2729 30.9918 33.1251C30.9208 32.9773 30.884 32.8155 30.884 32.6515V28.3991C30.884 28.2831 30.9301 28.1718 31.0121 28.0898C31.0941 28.0078 31.2054 27.9617 31.3214 27.9617H32.1962C32.3122 27.9617 32.4235 28.0078 32.5055 28.0898C32.5875 28.1718 32.6336 28.2831 32.6336 28.3991V32.3358L34.2192 33.4976C34.2641 33.5336 34.3015 33.5779 34.3292 33.6283C34.3569 33.6786 34.3744 33.734 34.3808 33.7911C34.3871 33.8482 34.3821 33.906 34.366 33.9612C34.35 34.0164 34.3233 34.0679 34.2873 34.1128V34.1128Z" fill="white"/>
</svg>
