<svg width="32" height="32" viewBox="0 0 32 32" fill="none" xmlns="http://www.w3.org/2000/svg">
<path d="M16 14.5C16.8284 14.5 17.5 15.1716 17.5 16C17.5 16.8284 16.8284 17.5 16 17.5C15.1716 17.5 14.5 16.8284 14.5 16C14.5 15.1716 15.1716 14.5 16 14.5Z" fill="#0090E2"/>
<path d="M8 14.5C8.82837 14.5 9.5 15.1716 9.5 16C9.5 16.8284 8.82837 17.5 8 17.5C7.17163 17.5 6.5 16.8284 6.5 16C6.5 15.1716 7.17163 14.5 8 14.5Z" fill="#0090E2"/>
<path d="M24 14.5C24.8284 14.5 25.5 15.1716 25.5 16C25.5 16.8284 24.8284 17.5 24 17.5C23.1716 17.5 22.5 16.8284 22.5 16C22.5 15.1716 23.1716 14.5 24 14.5Z" fill="#0090E2"/>
</svg>
