<svg width="16" height="22" viewBox="0 0 16 22" fill="none" xmlns="http://www.w3.org/2000/svg">
<path d="M9.69641 17.5407H6.48459C6.19261 17.5407 5.60864 17.2434 5.60864 16.9461C5.60864 16.6488 6.19261 16.0542 6.48459 16.0542H9.69641C9.98839 16.0542 10.2804 16.3515 10.2804 16.6488C10.2804 16.9461 9.98839 17.5407 9.69641 17.5407Z" fill="#0090E2"/>
<path d="M12.3442 1.48649C13.2217 1.48649 14.0991 2.37838 14.0991 3.27027V18.7297C14.0991 19.6216 13.2217 20.5135 12.3442 20.5135H3.57009C2.69268 20.5135 1.81526 19.6216 1.81526 18.7297V3.27027C1.81526 2.37838 2.69268 1.48649 3.57009 1.48649H12.3442ZM12.3442 0H3.57009C1.81526 0 0.352905 1.48649 0.352905 3.27027V18.7297C0.352905 20.5135 1.81526 22 3.57009 22H12.3442C14.0991 22 15.5614 20.5135 15.5614 18.7297V3.27027C15.8539 1.48649 14.0991 0 12.3442 0Z" fill="#0090E2"/>
</svg>
