<?xml version="1.0" encoding="utf-8"?>
<!-- Generator: Adobe Illustrator 21.1.0, SVG Export Plug-In . SVG Version: 6.00 Build 0)  -->
<svg version="1.1" id="Layer_1" xmlns="http://www.w3.org/2000/svg" xmlns:xlink="http://www.w3.org/1999/xlink" x="0px" y="0px"
	 viewBox="0 0 19.5 19.5" style="enable-background:new 0 0 19.5 19.5;" xml:space="preserve">
<style type="text/css">
</style>
<path class="st0" d="M19.3,18.2l-5.5-5.5c1.1-1.3,1.8-3.1,1.8-4.9C15.5,3.5,12,0,7.8,0S0,3.5,0,7.8c0,4.3,3.5,7.8,7.8,7.8
	c1.9,0,3.6-0.7,4.9-1.8l5.5,5.5c0.1,0.1,0.3,0.2,0.5,0.2s0.4-0.1,0.5-0.2C19.6,19,19.6,18.5,19.3,18.2z M7.8,14
	c-3.4,0-6.2-2.8-6.2-6.3c0-3.4,2.8-6.2,6.2-6.2S14,4.3,14,7.8C14,11.2,11.2,14,7.8,14z"/>
</svg>
