<?xml version="1.0" encoding="utf-8"?>
<!-- Generator: Adobe Illustrator 21.1.0, SVG Export Plug-In . SVG Version: 6.00 Build 0)  -->
<svg version="1.1" id="Layer_1" xmlns="http://www.w3.org/2000/svg" xmlns:xlink="http://www.w3.org/1999/xlink" x="0px"
     y="0px"
     viewBox="0 0 19.5 21.3" style="enable-background:new 0 0 19.5 21.3;" xml:space="preserve">
<g>
	<path class="st0" d="M17.1,3.6l-5.5-3.2c-1-0.6-2.7-0.6-3.8,0L2.3,3.7C0.1,5.2,0,5.4,0,7.7v5.8c0,2.4,0.1,2.6,2.4,4.1l5.5,3.2
		c0.5,0.3,1.2,0.5,1.9,0.5c0.7,0,1.3-0.2,1.9-0.5l5.5-3.2c2.2-1.5,2.3-1.7,2.3-4.1V7.7C19.5,5.4,19.4,5.2,17.1,3.6z M18,13.5
		c0,1.7,0,1.7-1.6,2.8l-5.5,3.2c-0.6,0.3-1.7,0.3-2.2,0l-5.5-3.2c-1.7-1.1-1.7-1.1-1.7-2.8V7.7c0-1.7,0-1.7,1.6-2.8l5.5-3.2
		c0.3-0.2,0.7-0.3,1.1-0.3c0.4,0,0.8,0.1,1.1,0.3l5.5,3.2C18,6,18,6,18,7.7V13.5z"/>
  <path class="st0" d="M9.8,6.9C7.7,6.9,6,8.6,6,10.6s1.7,3.8,3.8,3.8c2.1,0,3.8-1.7,3.8-3.8S11.8,6.9,9.8,6.9z M9.8,12.9c-1.2,0-2.2-1-2.2-2.3
		s1-2.2,2.2-2.2c1.2,0,2.2,1,2.2,2.2S11,12.9,9.8,12.9z"/>
</g>
</svg>
