<svg width="62" height="62" viewBox="0 0 62 62" fill="none" xmlns="http://www.w3.org/2000/svg">
<rect x="0.778503" y="0.853271" width="60.3648" height="60.3648" rx="30.1824" fill="#58B000"/>
<path d="M40.899 36.5815V19.8109C40.899 19.1471 40.365 18.613 39.7011 18.613H23.3299C20.6845 18.613 18.5383 20.7593 18.5383 23.4046V39.3766C18.5383 42.0219 20.6845 44.1682 23.3299 44.1682H39.7011C40.365 44.1682 40.899 43.6341 40.899 42.9703V42.1717C40.899 41.7973 40.7243 41.4579 40.4548 41.2383C40.2452 40.4697 40.2452 38.2785 40.4548 37.5099C40.7243 37.2952 40.899 36.9558 40.899 36.5815ZM24.9271 25.3013C24.9271 25.1366 25.0618 25.0018 25.2265 25.0018H35.808C35.9727 25.0018 36.1074 25.1366 36.1074 25.3013V26.2995C36.1074 26.4643 35.9727 26.599 35.808 26.599H25.2265C25.0618 26.599 24.9271 26.4643 24.9271 26.2995V25.3013ZM24.9271 28.4957C24.9271 28.331 25.0618 28.1962 25.2265 28.1962H35.808C35.9727 28.1962 36.1074 28.331 36.1074 28.4957V29.4939C36.1074 29.6586 35.9727 29.7934 35.808 29.7934H25.2265C25.0618 29.7934 24.9271 29.6586 24.9271 29.4939V28.4957ZM37.5749 40.9738H23.3299C22.4464 40.9738 21.7327 40.26 21.7327 39.3766C21.7327 38.4981 22.4514 37.7794 23.3299 37.7794H37.5749C37.48 38.6329 37.48 40.1203 37.5749 40.9738Z" fill="white"/>
</svg>
