<svg width="20" height="20" viewBox="0 0 20 20" fill="none" xmlns="http://www.w3.org/2000/svg">
<g clip-path="url(#clip0_229_7006)">
<path d="M17.2222 1.88889H15.3056V0.694444C15.3056 0.510266 15.2324 0.333632 15.1022 0.203398C14.9719 0.0731645 14.7953 0 14.6111 0C14.4269 0 14.2503 0.0731645 14.1201 0.203398C13.9898 0.333632 13.9167 0.510266 13.9167 0.694444V1.88889H6.08333V0.694444C6.08333 0.510266 6.01017 0.333632 5.87994 0.203398C5.7497 0.0731645 5.57307 0 5.38889 0C5.20471 0 5.02808 0.0731645 4.89784 0.203398C4.76761 0.333632 4.69444 0.510266 4.69444 0.694444V1.88889H2.77778C2.04107 1.88889 1.33453 2.18155 0.813592 2.70248C0.292658 3.22342 0 3.92995 0 4.66667L0 17.2222C0 17.9589 0.292658 18.6655 0.813592 19.1864C1.33453 19.7073 2.04107 20 2.77778 20H17.2222C17.9589 20 18.6655 19.7073 19.1864 19.1864C19.7073 18.6655 20 17.9589 20 17.2222V4.66667C20 3.92995 19.7073 3.22342 19.1864 2.70248C18.6655 2.18155 17.9589 1.88889 17.2222 1.88889ZM18.6111 17.2222C18.6111 17.5906 18.4648 17.9438 18.2043 18.2043C17.9438 18.4648 17.5906 18.6111 17.2222 18.6111H2.77778C2.40942 18.6111 2.05615 18.4648 1.79569 18.2043C1.53522 17.9438 1.38889 17.5906 1.38889 17.2222V7.63889H18.6111V17.2222ZM18.6111 6.25H1.38889V4.66667C1.38889 4.29831 1.53522 3.94504 1.79569 3.68457C2.05615 3.42411 2.40942 3.27778 2.77778 3.27778H4.69444V4.05556C4.69444 4.23973 4.76761 4.41637 4.89784 4.5466C5.02808 4.67684 5.20471 4.75 5.38889 4.75C5.57307 4.75 5.7497 4.67684 5.87994 4.5466C6.01017 4.41637 6.08333 4.23973 6.08333 4.05556V3.27778H13.8889V4.05556C13.8889 4.23973 13.9621 4.41637 14.0923 4.5466C14.2225 4.67684 14.3992 4.75 14.5833 4.75C14.7675 4.75 14.9441 4.67684 15.0744 4.5466C15.2046 4.41637 15.2778 4.23973 15.2778 4.05556V3.27778H17.2222C17.5906 3.27778 17.9438 3.42411 18.2043 3.68457C18.4648 3.94504 18.6111 4.29831 18.6111 4.66667V6.25Z" fill="#0090E2"/>
<path d="M13.9444 17.0834C14.2474 17.0842 14.5476 17.025 14.8276 16.9094C15.1077 16.7938 15.3621 16.624 15.5764 16.4098C15.7906 16.1955 15.9604 15.9411 16.076 15.661C16.1916 15.381 16.2507 15.0808 16.25 14.7779C16.2527 14.318 16.1187 13.8676 15.8649 13.4841C15.6111 13.1005 15.249 12.8011 14.8246 12.6238C14.4002 12.4465 13.9327 12.3994 13.4815 12.4885C13.0303 12.5775 12.6157 12.7987 12.2905 13.1239C11.9653 13.4491 11.7441 13.8637 11.655 14.3149C11.566 14.7661 11.6131 15.2336 11.7904 15.658C11.9676 16.0824 12.2671 16.4445 12.6506 16.6983C13.0342 16.9521 13.4845 17.0862 13.9444 17.0834ZM13.9444 14.0001C14.0928 14.0001 14.2378 14.0441 14.3611 14.1265C14.4845 14.2089 14.5806 14.326 14.6374 14.4631C14.6941 14.6001 14.709 14.7509 14.68 14.8964C14.6511 15.0419 14.5797 15.1755 14.4748 15.2804C14.3699 15.3853 14.2362 15.4567 14.0908 15.4857C13.9453 15.5146 13.7945 15.4998 13.6574 15.443C13.5204 15.3862 13.4033 15.2901 13.3208 15.1668C13.2384 15.0434 13.1944 14.8984 13.1944 14.7501C13.1941 14.6515 13.2132 14.5538 13.2508 14.4626C13.2883 14.3715 13.3436 14.2887 13.4133 14.2189C13.483 14.1492 13.5658 14.094 13.657 14.0564C13.7482 14.0189 13.8459 13.9997 13.9444 14.0001Z" fill="#0090E2"/>
<path d="M4.72222 11.1112C4.91451 11.1112 5.10248 11.0542 5.26236 10.9473C5.42224 10.8405 5.54685 10.6887 5.62044 10.511C5.69402 10.3334 5.71328 10.1379 5.67576 9.9493C5.63825 9.76071 5.54566 9.58747 5.40969 9.45151C5.27372 9.31554 5.10049 9.22294 4.91189 9.18543C4.7233 9.14792 4.52782 9.16717 4.35017 9.24075C4.17252 9.31434 4.02068 9.43895 3.91385 9.59883C3.80702 9.75871 3.75 9.94668 3.75 10.139C3.74926 10.2669 3.77391 10.3936 3.82251 10.5119C3.8711 10.6302 3.94269 10.7377 4.03311 10.8281C4.12354 10.9185 4.23101 10.9901 4.3493 11.0387C4.46759 11.0873 4.59434 11.1119 4.72222 11.1112Z" fill="#0090E2"/>
<path d="M9.33334 11.1112C9.59119 11.1112 9.83847 11.0088 10.0208 10.8264C10.2031 10.6441 10.3056 10.3968 10.3056 10.139C10.3056 9.88112 10.2031 9.63383 10.0208 9.45151C9.83847 9.26918 9.59119 9.16675 9.33334 9.16675C9.20566 9.16675 9.07924 9.1919 8.96128 9.24075C8.84333 9.28961 8.73615 9.36123 8.64587 9.45151C8.55559 9.54178 8.48398 9.64896 8.43512 9.76692C8.38626 9.88487 8.36111 10.0113 8.36111 10.139C8.36111 10.2666 8.38626 10.3931 8.43512 10.511C8.48398 10.629 8.55559 10.7362 8.64587 10.8264C8.73615 10.9167 8.84333 10.9883 8.96128 11.0372C9.07924 11.086 9.20566 11.1112 9.33334 11.1112Z" fill="#0090E2"/>
<path d="M13.9167 11.1111C14.0445 11.1155 14.172 11.0945 14.2917 11.0493C14.4114 11.0041 14.521 10.9356 14.614 10.8478C14.707 10.7599 14.7817 10.6545 14.8336 10.5375C14.8856 10.4206 14.9138 10.2945 14.9167 10.1666C14.9234 10.0382 14.9041 9.90971 14.8597 9.78899C14.8154 9.66827 14.7469 9.55781 14.6586 9.46431C14.5703 9.37081 14.464 9.29621 14.346 9.24504C14.228 9.19387 14.1008 9.16719 13.9722 9.16661C13.7154 9.16277 13.4671 9.25931 13.2804 9.4357C13.0936 9.61209 12.983 9.8544 12.9722 10.1111C12.9654 10.2395 12.9848 10.368 13.0292 10.4887C13.0735 10.6094 13.1419 10.7199 13.2302 10.8134C13.3185 10.9069 13.4249 10.9815 13.5429 11.0326C13.6609 11.0838 13.7881 11.1105 13.9167 11.1111Z" fill="#0090E2"/>
<path d="M4.72222 15.7223C4.91451 15.7223 5.10248 15.6653 5.26236 15.5584C5.42224 15.4516 5.54685 15.2998 5.62044 15.1221C5.69402 14.9445 5.71328 14.749 5.67576 14.5604C5.63825 14.3718 5.54566 14.1986 5.40969 14.0626C5.27372 13.9266 5.10049 13.834 4.91189 13.7965C4.7233 13.759 4.52782 13.7783 4.35017 13.8518C4.17252 13.9254 4.02068 14.05 3.91385 14.2099C3.80702 14.3698 3.75 14.5578 3.75 14.7501C3.74926 14.8779 3.77391 15.0047 3.82251 15.123C3.8711 15.2413 3.94269 15.3487 4.03311 15.4392C4.12354 15.5296 4.23101 15.6012 4.3493 15.6498C4.46759 15.6984 4.59434 15.723 4.72222 15.7223Z" fill="#0090E2"/>
<path d="M9.33334 15.7223C9.52562 15.7223 9.71359 15.6653 9.87347 15.5584C10.0334 15.4516 10.158 15.2998 10.2316 15.1221C10.3051 14.9445 10.3244 14.749 10.2869 14.5604C10.2494 14.3718 10.1568 14.1986 10.0208 14.0626C9.88483 13.9266 9.7116 13.834 9.52301 13.7965C9.33442 13.759 9.13893 13.7783 8.96128 13.8518C8.78363 13.9254 8.63179 14.05 8.52496 14.2099C8.41813 14.3698 8.36112 14.5578 8.36112 14.7501C8.36038 14.8779 8.38502 15.0047 8.43362 15.123C8.48222 15.2413 8.5538 15.3487 8.64423 15.4392C8.73466 15.5296 8.84213 15.6012 8.96041 15.6498C9.0787 15.6984 9.20546 15.723 9.33334 15.7223Z" fill="#0090E2"/>
</g>
<defs>
<clipPath id="clip0_229_7006">
<rect width="20" height="20" fill="white"/>
</clipPath>
</defs>
</svg>
