<svg width="15" height="15" viewBox="0 0 15 15" fill="none" xmlns="http://www.w3.org/2000/svg">
<g id="check-in" clip-path="url(#clip0_1765_2099)">
<g id="Group">
<path id="Vector" d="M7.5 6.55671e-07C3.35786 1.01779e-06 -1.01779e-06 3.35787 -6.55671e-07 7.5C-2.93554e-07 11.6421 3.35786 15 7.5 15C11.6421 15 15 11.6421 15 7.5C15 3.35786 11.6421 2.93554e-07 7.5 6.55671e-07Z" fill="#58B000"/>
</g>
<path id="Vector_2" d="M11.771 7.39587C11.771 7.35421 11.771 7.33337 11.7502 7.29171C11.7502 7.25004 11.7293 7.22921 11.7293 7.18754C11.7293 7.14587 11.7085 7.12504 11.7085 7.08337C11.6877 7.06254 11.6877 7.02087 11.6668 7.00004C11.646 6.97921 11.646 6.93754 11.6252 6.91671C11.6043 6.89587 11.5835 6.85421 11.5627 6.83337C11.5418 6.81254 11.521 6.79171 11.5002 6.75004L9.37516 4.60421C8.97933 4.18754 8.31266 4.18754 7.896 4.58337C7.47933 4.97921 7.47933 5.64587 7.87516 6.06254L8.25016 6.45837L4.29183 6.45837C3.70849 6.45837 3.25016 6.91671 3.25016 7.50004C3.25016 8.08337 3.70849 8.54171 4.29183 8.54171L8.25016 8.54171L7.87516 8.93754C7.47933 9.35421 7.47933 10 7.896 10.4167C8.10433 10.6042 8.35433 10.7084 8.62516 10.7084C8.896 10.7084 9.16683 10.6042 9.37516 10.3959L11.4793 8.22921C11.5002 8.20837 11.521 8.18754 11.5418 8.16671C11.5627 8.14587 11.5835 8.10421 11.6043 8.08337C11.6252 8.06254 11.646 8.02087 11.646 8.00004C11.6668 7.97921 11.6877 7.93754 11.6877 7.91671C11.7085 7.87504 11.7085 7.85421 11.7085 7.81254C11.7085 7.77087 11.7293 7.75004 11.7293 7.70837C11.7293 7.66671 11.7293 7.64587 11.7502 7.60421C11.7502 7.56254 11.7502 7.54171 11.7502 7.50004C11.771 7.45837 11.771 7.43754 11.771 7.39587Z" fill="white"/>
</g>
<defs>
<clipPath id="clip0_1765_2099">
<rect width="15" height="15" fill="white" transform="translate(15 15) rotate(180)"/>
</clipPath>
</defs>
</svg>
